<?xml version="1.0" encoding="UTF-8" standalone="no"?><!DOCTYPE svg PUBLIC "-//W3C//DTD SVG 1.1//EN" "http://www.w3.org/Graphics/SVG/1.1/DTD/svg11.dtd"><svg width="100%" height="100%" viewBox="0 0 1024 1024" version="1.1" xmlns="http://www.w3.org/2000/svg" xmlns:xlink="http://www.w3.org/1999/xlink" xml:space="preserve" xmlns:serif="http://www.serif.com/" style="fill-rule:evenodd;clip-rule:evenodd;stroke-linejoin:round;stroke-miterlimit:2;"><path d="M661.998,125.127c63.618,45.442 107.761,114.902 167.485,186.311c59.723,72.057 135.026,144.764 164.239,234.998c29.212,89.585 11.685,196.697 -38.95,284.334c-50.635,87.638 -133.729,156.449 -226.559,160.994c-92.182,4.544 -193.452,-55.18 -285.633,-70.76c-92.182,-15.58 -175.924,12.984 -255.772,1.299c-79.847,-11.685 -155.8,-63.618 -168.783,-136.325c-12.334,-72.058 39.599,-164.239 45.442,-253.175c5.842,-88.286 -33.108,-173.976 -12.334,-230.454c21.422,-56.477 103.866,-84.391 177.871,-123.99c73.356,-38.95 138.922,-88.936 212.926,-103.867c74.005,-14.931 156.449,5.842 220.068,50.635Z" style="fill:#f06422;fill-rule:nonzero;"/><g id="Layer_2_1_"><g><g><path d="M558.72,167.933l233.306,127.258l-214.453,-287.509c-35.349,47.133 -42.419,108.405 -18.853,160.251Z" style="fill:#ffa347;"/><path d="M452.672,636.901c28.279,0 51.846,23.566 51.846,54.202c-0,28.28 -23.567,51.846 -54.203,51.846c-28.279,0 -51.845,-23.566 -51.845,-51.846c2.356,-28.279 25.923,-54.202 54.202,-54.202Z" style="fill:#ffa347;"/><path d="M292.422,50.102l650.428,353.493c16.496,7.07 21.209,25.923 14.14,42.42c-2.357,7.069 -7.07,11.783 -14.14,14.139c-49.489,30.636 -103.692,51.846 -160.251,61.272l-136.684,278.082c0,0 -42.419,96.622 -160.25,58.916c49.489,-49.489 108.404,-94.265 108.404,-169.677c0,-80.125 -63.628,-143.754 -143.754,-143.754c-80.125,-0 -143.754,63.629 -143.754,143.754c0,98.978 98.979,141.397 153.181,209.739c23.566,35.35 21.209,82.482 -7.07,113.118c-65.985,-65.985 -195.6,-179.103 -249.802,-252.158c-28.28,-37.706 -44.776,-82.482 -47.133,-129.615c4.714,-103.691 75.412,-193.243 174.391,-223.879c30.636,-9.427 61.272,-11.783 91.908,-11.783c42.419,2.356 84.838,16.496 122.544,37.706c58.916,32.993 84.839,25.923 124.901,-9.427c23.567,-18.853 49.49,-82.482 9.427,-96.621c-14.14,-4.714 -25.923,-7.07 -40.063,-9.427c-73.055,-14.14 -202.669,-28.279 -249.802,-54.202c-75.412,-42.419 -127.258,-129.614 -96.621,-212.096Z" style="fill:#ffa347;"/><path d="M594.069,691.103c30.637,-157.893 -129.614,-308.717 -254.515,-287.508l9.427,-2.356c-7.07,2.356 -14.14,2.356 -18.853,4.713c-98.979,30.636 -169.677,120.188 -174.391,223.879c0,47.133 16.497,94.265 47.133,129.615c54.202,73.055 183.817,186.173 252.159,254.515c28.279,-30.636 32.992,-77.769 7.069,-113.118c-56.558,-68.342 -153.18,-110.761 -153.18,-209.74c-0,-80.125 63.629,-143.754 143.754,-143.754c80.125,0 143.754,63.629 141.397,143.754Z" style="fill:#ffa347;"/><path d="M292.422,50.102l494.891,268.655l14.139,7.07c11.783,9.426 23.567,28.279 9.427,61.272c-23.566,49.489 -117.831,98.978 -226.236,61.272c32.993,9.427 56.559,-2.356 87.195,-25.923c23.566,-18.853 49.489,-82.482 9.427,-96.621c-14.14,-4.714 -25.923,-7.07 -40.063,-9.427c-73.055,-14.14 -202.67,-28.279 -249.802,-54.202c-77.769,-42.419 -129.615,-129.614 -98.978,-212.096Z" style="fill:#ffa347;"/><path d="M292.422,50.102c51.845,188.53 362.92,205.026 518.457,282.795l-518.457,-282.795Z" style="fill:#ffa347;"/><path d="M462.098,900.843c-54.202,-68.342 -153.18,-110.761 -153.18,-209.74c-0,-73.055 54.202,-131.971 124.901,-141.397c-113.118,-0 -205.026,91.908 -205.026,207.383c-0,14.14 2.356,28.279 4.713,42.419c44.776,51.846 110.761,110.761 164.964,162.607c21.209,18.853 42.419,40.063 56.559,54.203c14.139,-16.497 21.209,-35.35 23.566,-56.559c2.356,-21.21 -4.713,-42.42 -16.497,-58.916Z" style="fill:#ffa347;"/><path d="M594.069,707.6l0,-16.497c30.637,-157.893 -131.971,-308.717 -254.515,-287.508c25.923,-7.07 54.202,-9.426 80.125,-7.07c162.607,4.714 209.74,179.104 174.39,311.075Z" style="fill:#ffa347;"/><path d="M118.031,356.463c28.28,-0 54.203,23.566 54.203,54.202l-0,54.203l-54.203,-0c-28.279,-0 -54.202,-23.567 -54.202,-54.203c0,-28.279 23.566,-54.202 54.202,-54.202Z" style="fill:#ffa347;"/></g></g></g></svg>